# xmcd
#
# Track frame offsets: 
#        150
#        14000
#        26953
#        44300
#        73250
#        88260
#        119390
#        135310
#        147070
#        169205
#        184665
#        209688
#        225905
#        243240
#
# Disc length: 3501 seconds
#
# Revision: 21
# Processed by: cddbd v1.5.2PL0 Copyright (c) Steve Scherf et al.
# Submitted via: ExactAudioCopy v1.3
#
DISCID=c80dab0e
DTITLE=Blues Brothers Band - Live In Montreux
DYEAR=1990
DGENRE=Blues
TTITLE0=Hold On, I'm Comin' (Live)
TTITLE1=In The Midnight Hour (Live)
TTITLE2=She Caught The Katy (Live)
TTITLE3=The Thrill Is Gone (Live)
TTITLE4=Can't Turn You Loose (Live)
TTITLE5=Sweet Home Chicago (Live)
TTITLE6=Knock On Wood (Live)
TTITLE7=Raise Your Hand (Live)
TTITLE8=Peter Gunn (Live)
TTITLE9=Soulfinger (Live)
TTITLE10=Hey Bartender (Live)
TTITLE11=Soul Man (Live)
TTITLE12=Everybody Needs Somebody To Love (Live)
TTITLE13=Green Onions (Live)
EXTD=
EXTT0=
EXTT1=
EXTT2=
EXTT3=
EXTT4=
EXTT5=
EXTT6=
EXTT7=
EXTT8=
EXTT9=
EXTT10=
EXTT11=
EXTT12=
EXTT13=
PLAYORDER=
